<svg width="28" height="28" viewBox="0 0 28 28" fill="none" xmlns="http://www.w3.org/2000/svg">
<path d="M11.5155 13.31C11.5155 13.31 13.9565 13.1246 13.9565 10.2037C13.9565 7.28535 12.301 5.84672 9.77047 5.84672L1.10156 5.83301V21.9612H9.97207C9.97207 21.9612 14.4073 22.1015 14.4073 17.1227C14.4073 17.1227 14.7331 13.31 11.5155 13.31ZM4.3272 8.25224H8.76246C8.76246 8.25224 10.2801 8.27724 10.2801 10.2449C10.2801 12.2843 8.76246 12.2843 8.76246 12.2843H4.3272V8.25224ZM9.16566 19.542H4.3272V14.7035H9.16566C9.16566 14.7035 11.5849 14.7285 11.5849 17.1227C11.5849 19.517 9.51403 19.542 9.16566 19.542Z" fill="#D48E77"/>
<path d="M21.262 9.86523C15.2035 9.86523 15.214 15.9133 15.214 15.9133C15.214 15.9133 14.8108 21.9614 21.262 21.9614C21.262 21.9614 26.9069 21.9614 26.9069 17.1229H23.6813C23.6813 17.1229 23.6813 19.5422 21.262 19.5422C21.262 19.5422 18.8428 19.5422 18.8428 16.3165C18.8428 16.3165 25.2941 16.3165 26.9069 16.3165C26.9069 14.7037 26.9069 9.86523 21.262 9.86523ZM18.8428 14.7037C18.8428 14.7037 18.7896 12.2845 21.262 12.2845C23.7337 12.2845 23.6813 14.7037 23.6813 14.7037H18.8428Z" fill="#D48E77"/>
<path d="M24.4879 7.44629H18.0366V9.05911H24.4879V7.44629Z" fill="#D48E77"/>
</svg>
