<svg width="111" height="111" viewBox="0 0 111 111" fill="none" xmlns="http://www.w3.org/2000/svg">
<rect x="25" y="26" width="60" height="60" rx="30" fill="#CE7D63"/>
<path fill-rule="evenodd" clip-rule="evenodd" d="M48.75 42.25L67.5 42.25C67.8315 42.25 68.1495 42.3817 68.3839 42.6161C68.6183 42.8505 68.75 43.1685 68.75 43.5V62.25C68.75 62.9404 68.1904 63.5 67.5 63.5C66.8096 63.5 66.25 62.9404 66.25 62.25V46.5178L43.3839 69.3839C42.8957 69.872 42.1043 69.872 41.6161 69.3839C41.128 68.8957 41.128 68.1043 41.6161 67.6161L64.4822 44.75L48.75 44.75C48.0596 44.75 47.5 44.1904 47.5 43.5C47.5 42.8096 48.0596 42.25 48.75 42.25Z" fill="#0F0F0F"/>
<path d="M79.5376 105.524C67.1807 111.462 53.0635 112.616 39.9064 108.764C26.7493 104.912 15.4834 96.3273 8.27963 84.6631C1.07589 72.9989 -1.55586 59.0813 0.891536 45.5921C3.33893 32.103 10.6923 19.997 21.5345 11.607L23.0496 13.5649C12.691 21.5807 5.66568 33.1467 3.32746 46.0341C0.989231 58.9215 3.50358 72.2184 10.386 83.3622C17.2684 94.5061 28.0318 102.708 40.602 106.388C53.1722 110.068 66.6597 108.966 78.4653 103.293L79.5376 105.524Z" fill="#CE7D63"/>
</svg>
