<svg width="28" height="28" viewBox="0 0 28 28" fill="none" xmlns="http://www.w3.org/2000/svg">
<path d="M10.1102 13.9996C10.1102 11.852 11.8518 10.1105 14.0008 10.1105C16.1498 10.1105 17.8923 11.852 17.8923 13.9996C17.8923 16.1473 16.1498 17.8888 14.0008 17.8888C11.8518 17.8888 10.1102 16.1473 10.1102 13.9996ZM8.00651 13.9996C8.00651 17.3083 10.6901 19.9903 14.0008 19.9903C17.3114 19.9903 19.9951 17.3083 19.9951 13.9996C19.9951 10.691 17.3114 8.00897 14.0008 8.00897C10.6901 8.00897 8.00651 10.691 8.00651 13.9996ZM18.8315 7.77143C18.8314 8.04833 18.9135 8.31903 19.0673 8.54932C19.2211 8.77961 19.4398 8.95914 19.6958 9.06521C19.9517 9.17127 20.2333 9.19911 20.5051 9.1452C20.7769 9.09129 21.0265 8.95805 21.2225 8.76234C21.4185 8.56662 21.552 8.31722 21.6062 8.04567C21.6603 7.77412 21.6327 7.49261 21.5268 7.23675C21.4208 6.9809 21.2414 6.76218 21.0111 6.60825C20.7808 6.45432 20.51 6.37211 20.2329 6.372H20.2324C19.861 6.37217 19.5049 6.51965 19.2422 6.78204C18.9795 7.04443 18.8318 7.40028 18.8315 7.77143ZM9.28463 23.496C8.1465 23.4442 7.52789 23.2547 7.11679 23.0947C6.57177 22.8826 6.1829 22.6301 5.77405 22.222C5.36519 21.814 5.1121 21.4257 4.90086 20.881C4.7406 20.4703 4.55102 19.8519 4.49928 18.7145C4.44269 17.4847 4.43139 17.1153 4.43139 13.9997C4.43139 10.8842 4.44362 10.5158 4.49928 9.28502C4.55112 8.14756 4.7421 7.53035 4.90086 7.11847C5.11304 6.57378 5.36575 6.18514 5.77405 5.77653C6.18234 5.36792 6.57084 5.11499 7.11679 4.90387C7.52771 4.74371 8.1465 4.55424 9.28463 4.50254C10.5151 4.44598 10.8848 4.43468 14.0008 4.43468C17.1168 4.43468 17.4868 4.44691 18.7183 4.50254C19.8565 4.55434 20.474 4.7452 20.8862 4.90387C21.4312 5.11499 21.8201 5.36848 22.2289 5.77653C22.6378 6.18458 22.8899 6.57378 23.1021 7.11847C23.2624 7.52914 23.4519 8.14756 23.5037 9.28502C23.5603 10.5158 23.5716 10.8842 23.5716 13.9997C23.5716 17.1153 23.5603 17.4837 23.5037 18.7145C23.4518 19.8519 23.2613 20.4701 23.1021 20.881C22.8899 21.4257 22.6372 21.8143 22.2289 22.222C21.8206 22.6297 21.4312 22.8826 20.8862 23.0947C20.4753 23.2548 19.8565 23.4443 18.7183 23.496C17.4878 23.5526 17.1182 23.5639 14.0008 23.5639C10.8834 23.5639 10.5148 23.5526 9.28463 23.496ZM9.18798 2.40366C7.94525 2.46022 7.09606 2.65715 6.35446 2.94555C5.58643 3.24338 4.93625 3.64294 4.28654 4.29123C3.63684 4.93952 3.23807 5.59033 2.94006 6.3579C2.65149 7.09953 2.45444 7.94774 2.39784 9.18972C2.34032 10.4337 2.32715 10.8314 2.32715 13.9996C2.32715 17.1679 2.34032 17.5656 2.39784 18.8096C2.45444 20.0516 2.65149 20.8998 2.94006 21.6414C3.23807 22.4085 3.63693 23.06 4.28654 23.7081C4.93616 24.3561 5.58643 24.7551 6.35446 25.0537C7.09746 25.3421 7.94525 25.5391 9.18798 25.5956C10.4333 25.6522 10.8306 25.6663 14.0008 25.6663C17.171 25.6663 17.5689 25.6531 18.8136 25.5956C20.0564 25.5391 20.905 25.3421 21.6471 25.0537C22.4147 24.7551 23.0653 24.3563 23.715 23.7081C24.3647 23.0598 24.7627 22.4085 25.0615 21.6414C25.3501 20.8998 25.5481 20.0515 25.6037 18.8096C25.6603 17.5647 25.6735 17.1679 25.6735 13.9996C25.6735 10.8314 25.6603 10.4337 25.6037 9.18972C25.5471 7.94765 25.3501 7.09906 25.0615 6.3579C24.7627 5.5908 24.3637 4.94055 23.715 4.29123C23.0663 3.64191 22.4147 3.24338 21.648 2.94555C20.905 2.65715 20.0563 2.45929 18.8145 2.40366C17.5698 2.3471 17.1719 2.33301 14.0017 2.33301C10.8315 2.33301 10.4333 2.34617 9.18798 2.40366Z" fill="#CE7D63"/>
<path d="M10.1102 13.9996C10.1102 11.852 11.8518 10.1105 14.0008 10.1105C16.1498 10.1105 17.8923 11.852 17.8923 13.9996C17.8923 16.1473 16.1498 17.8888 14.0008 17.8888C11.8518 17.8888 10.1102 16.1473 10.1102 13.9996ZM8.00651 13.9996C8.00651 17.3083 10.6901 19.9903 14.0008 19.9903C17.3114 19.9903 19.9951 17.3083 19.9951 13.9996C19.9951 10.691 17.3114 8.00897 14.0008 8.00897C10.6901 8.00897 8.00651 10.691 8.00651 13.9996ZM18.8315 7.77143C18.8314 8.04833 18.9135 8.31903 19.0673 8.54932C19.2211 8.77961 19.4398 8.95914 19.6958 9.06521C19.9517 9.17127 20.2333 9.19911 20.5051 9.1452C20.7769 9.09129 21.0265 8.95805 21.2225 8.76234C21.4185 8.56662 21.552 8.31722 21.6062 8.04567C21.6603 7.77412 21.6327 7.49261 21.5268 7.23675C21.4208 6.9809 21.2414 6.76218 21.0111 6.60825C20.7808 6.45432 20.51 6.37211 20.2329 6.372H20.2324C19.861 6.37217 19.5049 6.51965 19.2422 6.78204C18.9795 7.04443 18.8318 7.40028 18.8315 7.77143ZM9.28463 23.496C8.1465 23.4442 7.52789 23.2547 7.11679 23.0947C6.57177 22.8826 6.1829 22.6301 5.77405 22.222C5.36519 21.814 5.1121 21.4257 4.90086 20.881C4.7406 20.4703 4.55102 19.8519 4.49928 18.7145C4.44269 17.4847 4.43139 17.1153 4.43139 13.9997C4.43139 10.8842 4.44362 10.5158 4.49928 9.28502C4.55112 8.14756 4.7421 7.53035 4.90086 7.11847C5.11304 6.57378 5.36575 6.18514 5.77405 5.77653C6.18234 5.36792 6.57084 5.11499 7.11679 4.90387C7.52771 4.74371 8.1465 4.55424 9.28463 4.50254C10.5151 4.44598 10.8848 4.43468 14.0008 4.43468C17.1168 4.43468 17.4868 4.44691 18.7183 4.50254C19.8565 4.55434 20.474 4.7452 20.8862 4.90387C21.4312 5.11499 21.8201 5.36848 22.2289 5.77653C22.6378 6.18458 22.8899 6.57378 23.1021 7.11847C23.2624 7.52914 23.4519 8.14756 23.5037 9.28502C23.5603 10.5158 23.5716 10.8842 23.5716 13.9997C23.5716 17.1153 23.5603 17.4837 23.5037 18.7145C23.4518 19.8519 23.2613 20.4701 23.1021 20.881C22.8899 21.4257 22.6372 21.8143 22.2289 22.222C21.8206 22.6297 21.4312 22.8826 20.8862 23.0947C20.4753 23.2548 19.8565 23.4443 18.7183 23.496C17.4878 23.5526 17.1182 23.5639 14.0008 23.5639C10.8834 23.5639 10.5148 23.5526 9.28463 23.496ZM9.18798 2.40366C7.94525 2.46022 7.09606 2.65715 6.35446 2.94555C5.58643 3.24338 4.93625 3.64294 4.28654 4.29123C3.63684 4.93952 3.23807 5.59033 2.94006 6.3579C2.65149 7.09953 2.45444 7.94774 2.39784 9.18972C2.34032 10.4337 2.32715 10.8314 2.32715 13.9996C2.32715 17.1679 2.34032 17.5656 2.39784 18.8096C2.45444 20.0516 2.65149 20.8998 2.94006 21.6414C3.23807 22.4085 3.63693 23.06 4.28654 23.7081C4.93616 24.3561 5.58643 24.7551 6.35446 25.0537C7.09746 25.3421 7.94525 25.5391 9.18798 25.5956C10.4333 25.6522 10.8306 25.6663 14.0008 25.6663C17.171 25.6663 17.5689 25.6531 18.8136 25.5956C20.0564 25.5391 20.905 25.3421 21.6471 25.0537C22.4147 24.7551 23.0653 24.3563 23.715 23.7081C24.3647 23.0598 24.7627 22.4085 25.0615 21.6414C25.3501 20.8998 25.5481 20.0515 25.6037 18.8096C25.6603 17.5647 25.6735 17.1679 25.6735 13.9996C25.6735 10.8314 25.6603 10.4337 25.6037 9.18972C25.5471 7.94765 25.3501 7.09906 25.0615 6.3579C24.7627 5.5908 24.3637 4.94055 23.715 4.29123C23.0663 3.64191 22.4147 3.24338 21.648 2.94555C20.905 2.65715 20.0563 2.45929 18.8145 2.40366C17.5698 2.3471 17.1719 2.33301 14.0017 2.33301C10.8315 2.33301 10.4333 2.34617 9.18798 2.40366Z" fill="#CE7D63"/>
</svg>
