<svg width="87" height="16" viewBox="0 0 87 16" fill="none" xmlns="http://www.w3.org/2000/svg">
<path d="M86.4714 16H84.2733V6.31524H78.1478V16H75.9609V4.11719H78.1478V6.21482C78.1627 5.92472 78.2296 5.65322 78.3487 5.40031C78.4677 5.13997 78.6239 4.91682 78.8173 4.73086C79.0181 4.53746 79.2487 4.38869 79.5091 4.28455C79.7694 4.17298 80.0483 4.11719 80.3459 4.11719H84.2733C84.5783 4.11719 84.8647 4.17669 85.1325 4.29571C85.4003 4.40729 85.6309 4.56349 85.8243 4.76433C86.0251 4.95773 86.1813 5.18832 86.2929 5.4561C86.4119 5.72388 86.4714 6.01026 86.4714 6.31524V16Z" fill="#F3DFD8"/>
<path d="M72.2903 11.1799H64.4242V13.802H72.2903V16H64.4242C64.1267 16 63.844 15.9442 63.5762 15.8327C63.3084 15.7137 63.0741 15.5574 62.8733 15.364C62.6799 15.1632 62.5237 14.9289 62.4047 14.6611C62.2931 14.3933 62.2373 14.107 62.2373 13.802V6.31524C62.2373 6.01026 62.2931 5.72388 62.4047 5.4561C62.5237 5.18832 62.6799 4.95773 62.8733 4.76433C63.0741 4.56349 63.3084 4.40729 63.5762 4.29571C63.844 4.17669 64.1267 4.11719 64.4242 4.11719H70.0923C70.3972 4.11719 70.6836 4.17669 70.9514 4.29571C71.2192 4.40729 71.4498 4.56349 71.6432 4.76433C71.844 4.95773 72.0002 5.18832 72.1118 5.4561C72.2308 5.72388 72.2903 6.01026 72.2903 6.31524V11.1799ZM64.4242 6.31524V8.9819H70.0923V6.31524H64.4242Z" fill="#F3DFD8"/>
<path d="M45.0986 2.28731C45.0986 1.9749 45.1581 1.68108 45.2772 1.40586C45.3962 1.1232 45.5598 0.88145 45.7681 0.680614C45.9764 0.472338 46.2181 0.308694 46.4933 0.189679C46.776 0.0632264 47.0735 0 47.3859 0H56.0666C56.379 0 56.6728 0.0632264 56.948 0.189679C57.2307 0.308694 57.4761 0.472338 57.6844 0.680614C57.8927 0.88145 58.0563 1.1232 58.1753 1.40586C58.2944 1.68108 58.3539 1.9749 58.3539 2.28731V4.35146H56.0666V2.28731H47.3859V13.7127H56.0666V9.82985H51.7262V7.54254H58.3539V13.7127C58.3539 14.0251 58.2944 14.3226 58.1753 14.6053C58.0563 14.8805 57.8927 15.1223 57.6844 15.3305C57.4761 15.5388 57.2307 15.7025 56.948 15.8215C56.6728 15.9405 56.379 16 56.0666 16H47.3859C47.0735 16 46.776 15.9405 46.4933 15.8215C46.2181 15.7025 45.9764 15.5388 45.7681 15.3305C45.5598 15.1223 45.3962 14.8805 45.2772 14.6053C45.1581 14.3226 45.0986 14.0251 45.0986 13.7127V2.28731Z" fill="#F3DFD8"/>
<path d="M42.1539 4.11719L37.8359 9.91914L42.3547 16H39.6992L36.5081 11.7044L33.3059 16H30.6504L35.1804 9.91914L30.8624 4.11719H33.5067L36.5081 8.13392L39.4984 4.11719H42.1539Z" fill="#F3DFD8"/>
<path d="M28.1282 11.1799H20.2621V13.802H28.1282V16H20.2621C19.9645 16 19.6819 15.9442 19.4141 15.8327C19.1463 15.7137 18.912 15.5574 18.7112 15.364C18.5178 15.1632 18.3616 14.9289 18.2426 14.6611C18.131 14.3933 18.0752 14.107 18.0752 13.802V6.31524C18.0752 6.01026 18.131 5.72388 18.2426 5.4561C18.3616 5.18832 18.5178 4.95773 18.7112 4.76433C18.912 4.56349 19.1463 4.40729 19.4141 4.29571C19.6819 4.17669 19.9645 4.11719 20.2621 4.11719H25.9301C26.2351 4.11719 26.5215 4.17669 26.7893 4.29571C27.0571 4.40729 27.2877 4.56349 27.4811 4.76433C27.6819 4.95773 27.8381 5.18832 27.9497 5.4561C28.0687 5.72388 28.1282 6.01026 28.1282 6.31524V11.1799ZM20.2621 6.31524V8.9819H25.9301V6.31524H20.2621Z" fill="#F3DFD8"/>
<path d="M2.28731 16H0V0H2.28731L11.9052 12.4073V0H14.1925V16H11.9052L2.28731 3.59275V16Z" fill="#F3DFD8"/>
</svg>
