<svg width="40" height="40" viewBox="0 0 40 40" fill="none" xmlns="http://www.w3.org/2000/svg">
<rect x="0.5" y="0.5" width="39" height="39" rx="19.5" fill="#1F1F1F"/>
<rect x="0.5" y="0.5" width="39" height="39" rx="19.5" stroke="#333333"/>
<path d="M25.834 19.1665H14.1673C13.9463 19.1665 13.7343 19.2543 13.5781 19.4106C13.4218 19.5669 13.334 19.7788 13.334 19.9998C13.334 20.2209 13.4218 20.4328 13.5781 20.5891C13.7343 20.7454 13.9463 20.8332 14.1673 20.8332H25.834C26.055 20.8332 26.267 20.7454 26.4232 20.5891C26.5795 20.4328 26.6673 20.2209 26.6673 19.9998C26.6673 19.7788 26.5795 19.5669 26.4232 19.4106C26.267 19.2543 26.055 19.1665 25.834 19.1665Z" fill="#E7BEB1"/>
</svg>
