<svg width="40" height="40" viewBox="0 0 40 40" fill="none" xmlns="http://www.w3.org/2000/svg">
<rect x="0.5" y="0.5" width="39" height="39" rx="19.5" fill="#1F1F1F"/>
<rect x="0.5" y="0.5" width="39" height="39" rx="19.5" stroke="#333333"/>
<path d="M28.3327 14.8333C27.7063 15.105 27.0439 15.2846 26.366 15.3666C27.0812 14.9394 27.6171 14.2672 27.8743 13.4749C27.2023 13.875 26.4667 14.1568 25.6993 14.3083C25.1865 13.7521 24.5035 13.3818 23.7575 13.2556C23.0116 13.1294 22.2448 13.2544 21.5775 13.6109C20.9102 13.9674 20.3801 14.5354 20.0704 15.2256C19.7606 15.9159 19.6888 16.6894 19.866 17.4249C18.5072 17.3562 17.1781 17.0024 15.9649 16.3865C14.7517 15.7706 13.6817 14.9063 12.8243 13.8499C12.5236 14.3751 12.3656 14.9698 12.366 15.5749C12.3649 16.1369 12.5029 16.6904 12.7675 17.1862C13.0321 17.682 13.4152 18.1047 13.8827 18.4166C13.3393 18.4018 12.8076 18.256 12.3327 17.9916V18.0333C12.3368 18.8207 12.6127 19.5825 13.1138 20.1899C13.6149 20.7973 14.3104 21.213 15.0827 21.3666C14.7854 21.4571 14.4767 21.5048 14.166 21.5083C13.9509 21.5058 13.7364 21.4862 13.5243 21.4499C13.7443 22.1273 14.1699 22.7192 14.7419 23.1434C15.314 23.5676 16.004 23.8029 16.716 23.8166C15.5137 24.7627 14.0293 25.279 12.4993 25.2833C12.2208 25.2842 11.9425 25.2675 11.666 25.2333C13.228 26.2418 15.0484 26.7772 16.9077 26.7749C18.1908 26.7883 19.4636 26.5458 20.6519 26.0617C21.8403 25.5775 22.9202 24.8615 23.8287 23.9553C24.7372 23.0492 25.456 21.9711 25.9431 20.784C26.4303 19.5969 26.676 18.3247 26.666 17.0416C26.666 16.8999 26.666 16.7499 26.666 16.5999C27.3199 16.1123 27.8839 15.5145 28.3327 14.8333Z" fill="#E7BEB1"/>
</svg>
