<svg width="52" height="52" viewBox="0 0 52 52" fill="none" xmlns="http://www.w3.org/2000/svg">
<rect x="0.5" y="0.5" width="51" height="51" rx="7.5" fill="#1F1F1F"/>
<rect x="0.5" y="0.5" width="51" height="51" rx="7.5" stroke="#333333"/>
<path fill-rule="evenodd" clip-rule="evenodd" d="M27.4355 19.7831C26.5403 19.295 25.4584 19.295 24.5631 19.7831L19.7689 22.3973C18.8049 22.9229 18.2051 23.9332 18.2051 25.0312V29.9688C18.2051 31.0668 18.8049 32.0771 19.7689 32.6027L24.5631 35.2169C25.4584 35.705 26.5403 35.705 27.4355 35.2169L32.2297 32.6027C33.1937 32.0771 33.7935 31.0668 33.7935 29.9688V25.0312C33.7935 23.9332 33.1937 22.9229 32.2297 22.3973L27.4355 19.7831ZM25.9995 24.5C25.7155 24.5 25.5255 24.8408 25.1455 25.5225L25.0472 25.6989C24.9392 25.8926 24.8852 25.9894 24.801 26.0533C24.7168 26.1172 24.612 26.141 24.4023 26.1884L24.2114 26.2316C23.4735 26.3986 23.1045 26.482 23.0167 26.7643C22.929 27.0466 23.1805 27.3407 23.6835 27.929L23.8137 28.0812C23.9566 28.2483 24.0281 28.3319 24.0603 28.4353C24.0924 28.5387 24.0816 28.6502 24.06 28.8733L24.0403 29.0763C23.9643 29.8612 23.9262 30.2536 24.1561 30.4281C24.3859 30.6025 24.7313 30.4435 25.4222 30.1254L25.601 30.0431C25.7973 29.9527 25.8955 29.9075 25.9995 29.9075C26.1036 29.9075 26.2017 29.9527 26.3981 30.0431L26.5768 30.1254C27.2677 30.4435 27.6132 30.6025 27.843 30.4281C28.0728 30.2536 28.0347 29.8612 27.9587 29.0763L27.939 28.8733C27.9174 28.6502 27.9066 28.5387 27.9388 28.4353C27.9709 28.3319 28.0424 28.2483 28.1853 28.0812L28.3155 27.929C28.8185 27.3407 29.0701 27.0466 28.9823 26.7643C28.8945 26.482 28.5256 26.3986 27.7877 26.2316L27.5967 26.1884C27.3871 26.141 27.2822 26.1172 27.198 26.0533C27.1138 25.9894 27.0599 25.8926 26.9519 25.6989L26.8536 25.5225C26.4736 24.8408 26.2836 24.5 25.9995 24.5Z" fill="#CE7D63"/>
<path d="M25 16H27C28.8856 16 29.8284 16 30.4142 16.5858C31 17.1716 31 18.1144 31 20V20.018L28.1541 18.4662C26.8112 17.7339 25.1884 17.7339 23.8455 18.4662L21 20.0177V20C21 18.1144 21 17.1716 21.5858 16.5858C22.1716 16 23.1144 16 25 16Z" fill="#CE7D63"/>
</svg>
