<svg width="40" height="40" viewBox="0 0 40 40" fill="none" xmlns="http://www.w3.org/2000/svg">
<rect x="0.5" y="0.5" width="39" height="39" rx="19.5" fill="#1F1F1F"/>
<rect x="0.5" y="0.5" width="39" height="39" rx="19.5" stroke="#333333"/>
<path d="M25.834 19.1668H20.834V14.1668C20.834 13.9458 20.7462 13.7339 20.5899 13.5776C20.4336 13.4213 20.2217 13.3335 20.0007 13.3335C19.7796 13.3335 19.5677 13.4213 19.4114 13.5776C19.2551 13.7339 19.1673 13.9458 19.1673 14.1668V19.1668H14.1673C13.9463 19.1668 13.7343 19.2546 13.5781 19.4109C13.4218 19.5672 13.334 19.7791 13.334 20.0002C13.334 20.2212 13.4218 20.4331 13.5781 20.5894C13.7343 20.7457 13.9463 20.8335 14.1673 20.8335H19.1673V25.8335C19.1673 26.0545 19.2551 26.2665 19.4114 26.4228C19.5677 26.579 19.7796 26.6668 20.0007 26.6668C20.2217 26.6668 20.4336 26.579 20.5899 26.4228C20.7462 26.2665 20.834 26.0545 20.834 25.8335V20.8335H25.834C26.055 20.8335 26.267 20.7457 26.4232 20.5894C26.5795 20.4331 26.6673 20.2212 26.6673 20.0002C26.6673 19.7791 26.5795 19.5672 26.4232 19.4109C26.267 19.2546 26.055 19.1668 25.834 19.1668Z" fill="#E7BEB1"/>
</svg>
