<svg width="130" height="24" viewBox="0 0 130 24" fill="none" xmlns="http://www.w3.org/2000/svg">
<path d="M129.707 24H126.41V9.47285H117.222V24H113.941V6.17578H117.222V9.32222C117.244 8.88708 117.344 8.47983 117.523 8.10047C117.702 7.70995 117.936 7.37522 118.226 7.09628C118.527 6.80619 118.873 6.58303 119.264 6.42683C119.654 6.25946 120.073 6.17578 120.519 6.17578H126.41C126.867 6.17578 127.297 6.26504 127.699 6.44356C128.1 6.61093 128.446 6.84524 128.736 7.14649C129.038 7.43659 129.272 7.78248 129.439 8.18415C129.618 8.58582 129.707 9.01539 129.707 9.47285V24Z" fill="#F3DFD8"/>
<path d="M108.435 16.7699H96.6358V20.703H108.435V24H96.6358C96.1895 24 95.7655 23.9164 95.3638 23.749C94.9622 23.5705 94.6107 23.3362 94.3094 23.0461C94.0193 22.7448 93.785 22.3934 93.6065 21.9917C93.4392 21.59 93.3555 21.1604 93.3555 20.703V9.47285C93.3555 9.01539 93.4392 8.58582 93.6065 8.18415C93.785 7.78248 94.0193 7.43659 94.3094 7.14649C94.6107 6.84524 94.9622 6.61093 95.3638 6.44356C95.7655 6.26504 96.1895 6.17578 96.6358 6.17578H105.138C105.595 6.17578 106.025 6.26504 106.427 6.44356C106.828 6.61093 107.174 6.84524 107.464 7.14649C107.766 7.43659 108 7.78248 108.167 8.18415C108.346 8.58582 108.435 9.01539 108.435 9.47285V16.7699ZM96.6358 9.47285V13.4729H105.138V9.47285H96.6358Z" fill="#F3DFD8"/>
<path d="M67.6484 3.43096C67.6484 2.96234 67.7377 2.52162 67.9162 2.10879C68.0947 1.6848 68.3402 1.32218 68.6526 1.02092C68.965 0.708508 69.3277 0.46304 69.7405 0.284519C70.1645 0.0948396 70.6108 0 71.0794 0H84.1003C84.5689 0 85.0097 0.0948396 85.4225 0.284519C85.8465 0.46304 86.2147 0.708508 86.5271 1.02092C86.8395 1.32218 87.085 1.6848 87.2635 2.10879C87.442 2.52162 87.5313 2.96234 87.5313 3.43096V6.5272H84.1003V3.43096H71.0794V20.569H84.1003V14.7448H77.5899V11.3138H87.5313V20.569C87.5313 21.0377 87.442 21.484 87.2635 21.908C87.085 22.3208 86.8395 22.6834 86.5271 22.9958C86.2147 23.3082 85.8465 23.5537 85.4225 23.7322C85.0097 23.9107 84.5689 24 84.1003 24H71.0794C70.6108 24 70.1645 23.9107 69.7405 23.7322C69.3277 23.5537 68.965 23.3082 68.6526 22.9958C68.3402 22.6834 68.0947 22.3208 67.9162 21.908C67.7377 21.484 67.6484 21.0377 67.6484 20.569V3.43096Z" fill="#F3DFD8"/>
<path d="M63.2298 6.17578L56.7529 14.8787L63.5311 24H59.5478L54.7612 17.5565L49.9579 24H45.9746L52.7696 14.8787L46.2926 6.17578H50.2591L54.7612 12.2009L59.2466 6.17578H63.2298Z" fill="#F3DFD8"/>
<path d="M42.1928 16.7699H30.3936V20.703H42.1928V24H30.3936C29.9473 24 29.5233 23.9164 29.1216 23.749C28.72 23.5705 28.3685 23.3362 28.0673 23.0461C27.7772 22.7448 27.5428 22.3934 27.3643 21.9917C27.197 21.59 27.1133 21.1604 27.1133 20.703V9.47285C27.1133 9.01539 27.197 8.58582 27.3643 8.18415C27.5428 7.78248 27.7772 7.43659 28.0673 7.14649C28.3685 6.84524 28.72 6.61093 29.1216 6.44356C29.5233 6.26504 29.9473 6.17578 30.3936 6.17578H38.8957C39.3532 6.17578 39.7827 6.26504 40.1844 6.44356C40.5861 6.61093 40.932 6.84524 41.2221 7.14649C41.5233 7.43659 41.7576 7.78248 41.925 8.18415C42.1035 8.58582 42.1928 9.01539 42.1928 9.47285V16.7699ZM30.3936 9.47285V13.4729H38.8957V9.47285H30.3936Z" fill="#F3DFD8"/>
<path d="M3.43096 24H0V0H3.43096L17.8577 18.6109V0H21.2887V24H17.8577L3.43096 5.38912V24Z" fill="#F3DFD8"/>
</svg>
