<svg width="24" height="24" viewBox="0 0 24 24" fill="none" xmlns="http://www.w3.org/2000/svg">
<path d="M0 5.25C0 2.35051 2.35051 0 5.25 0C8.1495 0 10.5 2.35051 10.5 5.25V8.75C10.5 9.15686 10.5 9.36029 10.4553 9.5272C10.3339 9.98013 9.98013 10.3339 9.5272 10.4553C9.36029 10.5 9.15686 10.5 8.75 10.5H5.25C2.35051 10.5 0 8.1495 0 5.25Z" fill="#CE7D63"/>
<path d="M12.8333 14.5833C12.8333 14.1765 12.8333 13.973 12.8781 13.8061C12.9994 13.3532 13.3532 12.9994 13.8061 12.8781C13.973 12.8333 14.1765 12.8333 14.5833 12.8333H18.0833C20.9828 12.8333 23.3333 15.1838 23.3333 18.0833C23.3333 20.9828 20.9828 23.3333 18.0833 23.3333C15.1838 23.3333 12.8333 20.9828 12.8333 18.0833V14.5833Z" fill="#CE7D63"/>
<path d="M0 18.0833C0 15.1838 2.35051 12.8333 5.25 12.8333H8.4C9.13507 12.8333 9.5026 12.8333 9.78336 12.9764C10.0303 13.1022 10.2311 13.303 10.3569 13.55C10.5 13.8307 10.5 14.1983 10.5 14.9333V18.0833C10.5 20.9828 8.1495 23.3333 5.25 23.3333C2.35051 23.3333 0 20.9828 0 18.0833Z" fill="#CE7D63"/>
<path d="M12.8333 5.25C12.8333 2.35051 15.1838 0 18.0833 0C20.9828 0 23.3333 2.35051 23.3333 5.25C23.3333 8.1495 20.9828 10.5 18.0833 10.5H14.3333C14.1592 10.5 14.0721 10.5 13.9989 10.4917C13.3904 10.4232 12.9101 9.94296 12.8416 9.33445C12.8333 9.26121 12.8333 9.17414 12.8333 9V5.25Z" fill="#CE7D63"/>
</svg>
