<svg width="30" height="28" viewBox="0 0 30 28" fill="none" xmlns="http://www.w3.org/2000/svg">
<path d="M14.4949 2.01953C21.1199 2.01953 26.4801 7.37972 26.4801 13.9946C26.4801 20.6096 21.1199 25.9798 14.4949 25.9798C7.86996 25.9798 2.50977 20.6196 2.50977 14.0047C2.50977 7.38976 7.86996 2.01953 14.4949 2.01953Z" fill="#E7BEB1"/>
<path d="M14.4959 26.8332C7.40917 26.8332 1.64746 21.0815 1.64746 14.0049C1.64746 6.91817 7.40917 1.1665 14.4959 1.1665C21.5826 1.1665 27.3443 6.91817 27.3443 13.9948C27.3443 21.0715 21.5826 26.8332 14.4959 26.8332ZM25.3267 15.7514C24.9553 15.631 21.9339 14.7376 18.4909 15.2797C19.9263 19.2145 20.5085 22.4266 20.6189 23.0891C23.0882 21.4328 24.8448 18.8029 25.3267 15.7514ZM18.782 24.1029C18.6214 23.1393 17.979 19.7866 16.4432 15.7916C16.4231 15.8016 16.393 15.8117 16.3729 15.8117C10.1796 17.9698 7.96125 22.256 7.76049 22.6575C9.61749 24.1029 11.9563 24.9662 14.4959 24.9662C16.0116 24.9762 17.4671 24.665 18.782 24.1029ZM6.34516 21.3425C6.5961 20.9209 9.60745 15.9422 15.2688 14.1052C15.4093 14.0551 15.5599 14.0149 15.7004 13.9748C15.4294 13.3524 15.1282 12.7301 14.807 12.1178C9.32639 13.7539 4.00635 13.6837 3.52453 13.6736C3.52453 13.784 3.51449 13.8945 3.51449 14.0049C3.52453 16.8255 4.58854 19.3952 6.34516 21.3425ZM3.7554 11.7664C4.24725 11.7765 8.76427 11.7965 13.9036 10.4314C12.0868 7.19923 10.1194 4.48902 9.83832 4.09755C6.75671 5.54299 4.46809 8.37365 3.7554 11.7664ZM11.9262 3.35475C12.2273 3.75626 14.2248 6.46647 16.0216 9.76891C19.9263 8.30339 21.5725 6.09507 21.7733 5.81401C19.836 4.09755 17.2864 3.05361 14.4959 3.05361C13.6125 3.05361 12.7493 3.16403 11.9262 3.35475ZM22.9879 7.07878C22.757 7.38995 20.9201 9.74883 16.8648 11.4051C17.1157 11.927 17.3667 12.459 17.5975 12.991C17.6778 13.1818 17.7582 13.3725 17.8385 13.5532C21.4922 13.0914 25.1159 13.8342 25.4772 13.9045C25.4471 11.3248 24.5236 8.94581 22.9879 7.07878Z" fill="#CE7D63"/>
</svg>
