<svg width="50" height="56" viewBox="0 0 50 56" fill="none" xmlns="http://www.w3.org/2000/svg">
<path d="M49.2116 46.2775C45.4707 50.619 40.4876 53.708 34.9353 55.1275C29.3829 56.547 23.5287 56.2286 18.1631 54.2152C12.7975 52.2018 8.17895 48.5905 4.93098 43.8689C1.68302 39.1472 -0.0378835 33.5426 0.000632362 27.8118C0.0391483 22.081 1.83523 16.5001 5.14636 11.8225C8.4575 7.14493 13.1242 3.59602 18.5164 1.65496C23.9086 -0.286103 29.7665 -0.525826 35.2993 0.968156C40.832 2.46214 45.7731 5.61787 49.4554 10.0093L48.4983 10.8118C44.9803 6.61627 40.2596 3.6013 34.9737 2.17396C29.6877 0.746624 24.0911 0.975654 18.9394 2.83013C13.7878 4.68461 9.32923 8.07521 6.1658 12.5441C3.00236 17.0131 1.2864 22.3451 1.2496 27.8202C1.2128 33.2954 2.85694 38.65 5.96002 43.161C9.06311 47.672 13.4757 51.1223 18.6019 53.0458C23.7282 54.9694 29.3213 55.2736 34.6259 53.9174C39.9306 52.5613 44.6914 49.61 48.2654 45.4622L49.2116 46.2775Z" fill="#CE7D63"/>
</svg>
