<svg width="30" height="28" viewBox="0 0 30 28" fill="none" xmlns="http://www.w3.org/2000/svg">
<path d="M14.4969 2.01953C21.1218 2.01953 26.482 7.37972 26.482 13.9946C26.482 20.6096 21.1218 25.9798 14.4969 25.9798C7.87191 25.9798 2.51172 20.6196 2.51172 14.0047C2.51172 7.38976 7.87191 2.01953 14.4969 2.01953Z" fill="#E7BEB1"/>
<path d="M14.4968 26.8332C7.41014 26.8332 1.64844 21.0815 1.64844 14.0049C1.64844 6.91817 7.41014 1.1665 14.4968 1.1665C21.5835 1.1665 27.3452 6.91817 27.3452 13.9948C27.3452 21.0715 21.5835 26.8332 14.4968 26.8332ZM25.3276 15.7514C24.9562 15.631 21.9349 14.7376 18.4919 15.2797C19.9273 19.2145 20.5095 22.4266 20.6199 23.0891C23.0892 21.4328 24.8458 18.8029 25.3276 15.7514ZM18.783 24.1029C18.6224 23.1393 17.98 19.7866 16.4442 15.7916C16.4241 15.8016 16.394 15.8117 16.3739 15.8117C10.1806 17.9698 7.96222 22.256 7.76147 22.6575C9.61846 24.1029 11.9573 24.9662 14.4968 24.9662C16.0125 24.9762 17.468 24.665 18.783 24.1029ZM6.34613 21.3425C6.59708 20.9209 9.60842 15.9422 15.2698 14.1052C15.4103 14.0551 15.5608 14.0149 15.7014 13.9748C15.4304 13.3524 15.1292 12.7301 14.808 12.1178C9.32737 13.7539 4.00732 13.6837 3.52551 13.6736C3.52551 13.784 3.51547 13.8945 3.51547 14.0049C3.52551 16.8255 4.58952 19.3952 6.34613 21.3425ZM3.75638 11.7664C4.24823 11.7765 8.76525 11.7965 13.9046 10.4314C12.0878 7.19923 10.1204 4.48902 9.83929 4.09755C6.75768 5.54299 4.46906 8.37365 3.75638 11.7664ZM11.9272 3.35475C12.2283 3.75626 14.2258 6.46647 16.0226 9.76891C19.9273 8.30339 21.5735 6.09507 21.7743 5.81401C19.837 4.09755 17.2874 3.05361 14.4968 3.05361C13.6135 3.05361 12.7503 3.16403 11.9272 3.35475ZM22.9888 7.07878C22.758 7.38995 20.921 9.74883 16.8658 11.4051C17.1167 11.927 17.3677 12.459 17.5985 12.991C17.6788 13.1818 17.7591 13.3725 17.8394 13.5532C21.4932 13.0914 25.1168 13.8342 25.4782 13.9045C25.4481 11.3248 24.5246 8.94581 22.9888 7.07878Z" fill="#CE7D63"/>
</svg>
