<svg width="28" height="28" viewBox="0 0 28 28" fill="none" xmlns="http://www.w3.org/2000/svg">
<path d="M11.5155 13.3105C11.5155 13.3105 13.9565 13.1251 13.9565 10.2042C13.9565 7.28584 12.301 5.84721 9.77047 5.84721L1.10156 5.8335V21.9617H9.97207C9.97207 21.9617 14.4073 22.102 14.4073 17.1232C14.4073 17.1232 14.7331 13.3105 11.5155 13.3105ZM4.3272 8.25273H8.76246C8.76246 8.25273 10.2801 8.27772 10.2801 10.2454C10.2801 12.2848 8.76246 12.2848 8.76246 12.2848H4.3272V8.25273ZM9.16566 19.5425H4.3272V14.704H9.16566C9.16566 14.704 11.5849 14.729 11.5849 17.1232C11.5849 19.5175 9.51403 19.5425 9.16566 19.5425Z" fill="#D48E77"/>
<path d="M21.2601 9.86572C15.2015 9.86572 15.212 15.9138 15.212 15.9138C15.212 15.9138 14.8088 21.9619 21.2601 21.9619C21.2601 21.9619 26.905 21.9619 26.905 17.1234H23.6793C23.6793 17.1234 23.6793 19.5426 21.2601 19.5426C21.2601 19.5426 18.8409 19.5426 18.8409 16.317C18.8409 16.317 25.2921 16.317 26.905 16.317C26.905 14.7042 26.905 9.86572 21.2601 9.86572ZM18.8409 14.7042C18.8409 14.7042 18.7876 12.285 21.2601 12.285C23.7317 12.285 23.6793 14.7042 23.6793 14.7042H18.8409Z" fill="#D48E77"/>
<path d="M24.4864 7.44629H18.0352V9.05911H24.4864V7.44629Z" fill="#D48E77"/>
</svg>
