<svg width="20" height="20" viewBox="0 0 20 20" fill="none" xmlns="http://www.w3.org/2000/svg">
<path fill-rule="evenodd" clip-rule="evenodd" d="M20 10V17.2058C20 18.4896 18.649 19.3245 17.5008 18.7504C16.5727 18.2864 15.4672 18.3552 14.6039 18.9308C13.6326 19.5782 12.3674 19.5782 11.3961 18.9308L11.0435 18.6957C10.4116 18.2744 9.5884 18.2744 8.95652 18.6957L8.60386 18.9308C7.63264 19.5782 6.36736 19.5782 5.39614 18.9308C4.5328 18.3552 3.42726 18.2864 2.4992 18.7504C1.35098 19.3245 0 18.4896 0 17.2058V10C0 4.47715 4.47715 0 10 0C15.5228 0 20 4.47715 20 10ZM7.44661 12.3975C7.11385 12.1508 6.64413 12.2206 6.39747 12.5534C6.15082 12.8862 6.22062 13.3559 6.55339 13.6025C7.5258 14.3233 8.71503 14.75 10 14.75C11.285 14.75 12.4742 14.3233 13.4466 13.6025C13.7794 13.3559 13.8492 12.8862 13.6025 12.5534C13.3559 12.2206 12.8862 12.1508 12.5534 12.3975C11.825 12.9373 10.9459 13.25 10 13.25C9.0541 13.25 8.17495 12.9373 7.44661 12.3975ZM14 7.5C14 8.32843 13.5523 9 13 9C12.4477 9 12 8.32843 12 7.5C12 6.67157 12.4477 6 13 6C13.5523 6 14 6.67157 14 7.5ZM7 9C7.55228 9 8 8.32843 8 7.5C8 6.67157 7.55228 6 7 6C6.44772 6 6 6.67157 6 7.5C6 8.32843 6.44772 9 7 9Z" fill="#CE7D63"/>
</svg>
