<svg width="16" height="20" viewBox="0 0 16 20" fill="none" xmlns="http://www.w3.org/2000/svg">
<path fill-rule="evenodd" clip-rule="evenodd" d="M1.17157 1.17157C0 2.34315 0 4.22876 0 8V12C0 15.7712 0 17.6569 1.17157 18.8284C2.34315 20 4.22876 20 8 20C11.7712 20 13.6569 20 14.8284 18.8284C16 17.6569 16 15.7712 16 12V8C16 4.22876 16 2.34315 14.8284 1.17157C13.6569 0 11.7712 0 8 0C4.22876 0 2.34315 0 1.17157 1.17157ZM5 2.25C4.58579 2.25 4.25 2.58579 4.25 3C4.25 3.41421 4.58579 3.75 5 3.75H11C11.4142 3.75 11.75 3.41421 11.75 3C11.75 2.58579 11.4142 2.25 11 2.25H5ZM8 17C9.10457 17 10 16.1046 10 15C10 13.8954 9.10457 13 8 13C6.89543 13 6 13.8954 6 15C6 16.1046 6.89543 17 8 17Z" fill="#CE7D63"/>
</svg>
