<svg width="28" height="28" viewBox="0 0 28 28" fill="none" xmlns="http://www.w3.org/2000/svg">
<path d="M26.6235 6.02266C25.7994 6.3773 24.9331 6.62426 24.0459 6.75742C24.4607 6.68631 25.071 5.9397 25.314 5.6375C25.683 5.18166 25.9643 4.66128 26.1435 4.1028C26.1435 4.06132 26.185 4.00207 26.1435 3.97244C26.1226 3.96103 26.0992 3.95505 26.0754 3.95505C26.0516 3.95505 26.0281 3.96103 26.0072 3.97244C25.0439 4.49413 24.0186 4.8923 22.9556 5.15754C22.9186 5.16885 22.8791 5.16987 22.8415 5.16048C22.804 5.15108 22.7697 5.13163 22.7423 5.10421C22.6595 5.00568 22.5705 4.91265 22.4756 4.82571C22.0421 4.43726 21.5502 4.11934 21.018 3.88356C20.2995 3.58881 19.5235 3.46116 18.7485 3.51025C17.9965 3.55774 17.2623 3.75944 16.5916 4.1028C15.9312 4.4648 15.3507 4.95659 14.8851 5.54862C14.3954 6.15797 14.0418 6.86513 13.8481 7.62254C13.6885 8.34299 13.6704 9.08761 13.7948 9.81497C13.7948 9.9394 13.7948 9.95718 13.6882 9.9394C9.46328 9.31723 5.99688 7.81808 3.16449 4.60054C3.04006 4.45833 2.97488 4.45833 2.87415 4.60054C1.64165 6.47299 2.24012 9.43574 3.78075 10.8993C3.98814 11.0949 4.20145 11.2845 4.42662 11.4623C3.72026 11.4121 3.03114 11.2207 2.40011 10.8993C2.2816 10.8223 2.21642 10.8638 2.21049 11.006C2.19369 11.2031 2.19369 11.4014 2.21049 11.5985C2.33413 12.5434 2.7065 13.4385 3.28952 14.1923C3.87254 14.946 4.6453 15.5314 5.52876 15.8886C5.74413 15.9808 5.96854 16.0503 6.19834 16.096C5.54442 16.2247 4.87374 16.2447 4.2133 16.1552C4.07109 16.1256 4.01776 16.2026 4.07109 16.3389C4.94214 18.7091 6.83237 19.432 8.21893 19.835C8.40855 19.8646 8.59816 19.8646 8.81148 19.912C8.81148 19.912 8.81148 19.912 8.77593 19.9475C8.36707 20.6942 6.71386 21.1978 5.9554 21.4585C4.57101 21.9558 3.095 22.1459 1.62979 22.0155C1.3987 21.98 1.34537 21.9859 1.28612 22.0155C1.22686 22.0452 1.28612 22.1103 1.3513 22.1696C1.64757 22.3651 1.94384 22.537 2.25197 22.7029C3.16926 23.2032 4.13902 23.6007 5.14361 23.888C10.3462 25.322 16.2006 24.2672 20.1055 20.386C23.1749 17.3403 24.2533 13.1392 24.2533 8.93207C24.2533 8.77208 24.4488 8.67727 24.5614 8.59432C25.338 7.98926 26.0226 7.27471 26.5939 6.47299C26.6928 6.35349 26.7435 6.20133 26.7361 6.04636C26.7361 5.95748 26.7361 5.97525 26.6235 6.02266Z" fill="#CE7D63"/>
</svg>
