<svg width="30" height="28" viewBox="0 0 30 28" fill="none" xmlns="http://www.w3.org/2000/svg">
<path d="M14.4949 2.02051C21.1199 2.02051 26.4801 7.3807 26.4801 13.9956C26.4801 20.6105 21.1199 25.9808 14.4949 25.9808C7.86996 25.9808 2.50977 20.6206 2.50977 14.0057C2.50977 7.39074 7.86996 2.02051 14.4949 2.02051Z" fill="#E7BEB1"/>
<path d="M14.4959 26.8337C7.40917 26.8337 1.64746 21.082 1.64746 14.0054C1.64746 6.91866 7.40917 1.16699 14.4959 1.16699C21.5826 1.16699 27.3443 6.91866 27.3443 13.9953C27.3443 21.072 21.5826 26.8337 14.4959 26.8337ZM25.3267 15.7519C24.9553 15.6315 21.9339 14.7381 18.4909 15.2802C19.9263 19.215 20.5085 22.4271 20.6189 23.0896C23.0882 21.4333 24.8448 18.8034 25.3267 15.7519ZM18.782 24.1034C18.6214 23.1398 17.979 19.7871 16.4432 15.7921C16.4231 15.8021 16.393 15.8122 16.3729 15.8122C10.1796 17.9703 7.96125 22.2564 7.76049 22.658C9.61749 24.1034 11.9563 24.9667 14.4959 24.9667C16.0116 24.9767 17.4671 24.6655 18.782 24.1034ZM6.34516 21.343C6.5961 20.9214 9.60745 15.9427 15.2688 14.1057C15.4093 14.0555 15.5599 14.0154 15.7004 13.9752C15.4294 13.3529 15.1282 12.7306 14.807 12.1182C9.32639 13.7544 4.00635 13.6841 3.52453 13.6741C3.52453 13.7845 3.51449 13.8949 3.51449 14.0054C3.52453 16.826 4.58854 19.3957 6.34516 21.343ZM3.7554 11.7669C4.24725 11.777 8.76427 11.797 13.9036 10.4319C12.0868 7.19972 10.1194 4.48951 9.83832 4.09803C6.75671 5.54348 4.46809 8.37414 3.7554 11.7669ZM11.9262 3.35524C12.2273 3.75675 14.2248 6.46696 16.0216 9.7694C19.9263 8.30388 21.5725 6.09556 21.7733 5.8145C19.836 4.09803 17.2864 3.0541 14.4959 3.0541C13.6125 3.0541 12.7493 3.16452 11.9262 3.35524ZM22.9879 7.07926C22.757 7.39044 20.9201 9.74932 16.8648 11.4056C17.1157 11.9275 17.3667 12.4595 17.5975 12.9915C17.6778 13.1823 17.7582 13.373 17.8385 13.5537C21.4922 13.0919 25.1159 13.8347 25.4772 13.905C25.4471 11.3253 24.5236 8.9463 22.9879 7.07926Z" fill="#CE7D63"/>
</svg>
