<svg width="20" height="20" viewBox="0 0 20 20" fill="none" xmlns="http://www.w3.org/2000/svg">
<path d="M15.8335 9.16634H10.8335V4.16634C10.8335 3.94533 10.7457 3.73337 10.5894 3.57709C10.4331 3.42081 10.2212 3.33301 10.0002 3.33301C9.77915 3.33301 9.56719 3.42081 9.41091 3.57709C9.25463 3.73337 9.16683 3.94533 9.16683 4.16634V9.16634H4.16683C3.94582 9.16634 3.73385 9.25414 3.57757 9.41042C3.42129 9.5667 3.3335 9.77866 3.3335 9.99967C3.3335 10.2207 3.42129 10.4326 3.57757 10.5889C3.73385 10.7452 3.94582 10.833 4.16683 10.833H9.16683V15.833C9.16683 16.054 9.25463 16.266 9.41091 16.4223C9.56719 16.5785 9.77915 16.6663 10.0002 16.6663C10.2212 16.6663 10.4331 16.5785 10.5894 16.4223C10.7457 16.266 10.8335 16.054 10.8335 15.833V10.833H15.8335C16.0545 10.833 16.2665 10.7452 16.4228 10.5889C16.579 10.4326 16.6668 10.2207 16.6668 9.99967C16.6668 9.77866 16.579 9.5667 16.4228 9.41042C16.2665 9.25414 16.0545 9.16634 15.8335 9.16634Z" fill="#E7BEB1"/>
</svg>
